{
	"asset":{
		"generator":"Khronos glTF Blender I/O v3.5.30",
		"version":"2.0"
	},
	"scene":0,
	"scenes":[
		{
			"name":"Scene",
			"nodes":[
				2,
				5,
				8,
				11,
				14,
				17
			]
		}
	],
	"nodes":[
		{
			"name":"Bottom.001",
			"rotation":[
				-0.7071068286895752,
				0,
				0,
				0.7071068286895752
			],
			"scale":[
				0.3506503701210022,
				0.3506503701210022,
				0.3506503701210022
			],
			"translation":[
				0,
				0.2975820004940033,
				0.021698687225580215
			]
		},
		{
			"name":"Top.001",
			"rotation":[
				-0.7071068286895752,
				0,
				0,
				0.7071068286895752
			],
			"scale":[
				0.7015048861503601,
				0.7015048861503601,
				0.7015048861503601
			],
			"translation":[
				0,
				0.6788589358329773,
				0
			]
		},
		{
			"children":[
				0,
				1
			],
			"mesh":0,
			"name":"Bowl"
		},
		{
			"name":"Bottom",
			"rotation":[
				-0.7071068286895752,
				0,
				0,
				0.7071068286895752
			],
			"scale":[
				0.5428392887115479,
				0.5428392887115479,
				0.5428392887115479
			],
			"translation":[
				0,
				0.24178537726402283,
				-0.0037183761596679688
			]
		},
		{
			"name":"Top.004",
			"rotation":[
				-0.7071068286895752,
				0,
				0,
				0.7071068286895752
			],
			"scale":[
				0.8539742827415466,
				0.8539742827415466,
				0.8539742827415466
			],
			"translation":[
				0,
				0.4170835316181183,
				0.007985353469848633
			]
		},
		{
			"children":[
				3,
				4
			],
			"mesh":1,
			"name":"Plate",
			"translation":[
				0,
				0,
				-3
			]
		},
		{
			"name":"Bottom.002",
			"rotation":[
				-0.7071068286895752,
				0,
				0,
				0.7071068286895752
			],
			"scale":[
				0.1566600501537323,
				0.1566600501537323,
				0.1566600501537323
			],
			"translation":[
				0,
				0.16126354038715363,
				0.011976003646850586
			]
		},
		{
			"name":"Top.002",
			"rotation":[
				-0.7071068286895752,
				0,
				0,
				0.7071068286895752
			],
			"scale":[
				0.25140464305877686,
				0.25140464305877686,
				0.25140464305877686
			],
			"translation":[
				0,
				0.660186767578125,
				0.011581182479858398
			]
		},
		{
			"children":[
				6,
				7
			],
			"mesh":2,
			"name":"Cup",
			"translation":[
				0,
				0,
				2
			]
		},
		{
			"name":"Bottom.003",
			"rotation":[
				-0.5000000596046448,
				0.4999999403953552,
				-0.4999999403953552,
				0.5000000596046448
			],
			"scale":[
				0.07293371111154556,
				0.07293371111154556,
				0.07293371111154556
			],
			"translation":[
				-0.28290408849716187,
				0.04314808547496796,
				0.004043102264404297
			]
		},
		{
			"name":"Top.003",
			"rotation":[
				-0.5000000596046448,
				0.4999999403953552,
				-0.4999999403953552,
				0.5000000596046448
			],
			"scale":[
				0.12850476801395416,
				0.12850476801395416,
				0.12850476801395416
			],
			"translation":[
				0.7062298655509949,
				0.056395307183265686,
				0.006715297698974609
			]
		},
		{
			"children":[
				9,
				10
			],
			"mesh":3,
			"name":"Fork",
			"translation":[
				0,
				0,
				3
			]
		},
		{
			"name":"Bottom.004",
			"rotation":[
				-0.5000000596046448,
				0.4999999403953552,
				-0.4999999403953552,
				0.5000000596046448
			],
			"scale":[
				0.07293371111154556,
				0.07293371111154556,
				0.07293371111154556
			],
			"translation":[
				-0.28290408849716187,
				0.04314808547496796,
				0.01980113983154297
			]
		},
		{
			"name":"Top.005",
			"rotation":[
				-0.5000000596046448,
				0.4999999403953552,
				-0.4999999403953552,
				0.5000000596046448
			],
			"scale":[
				0.12850476801395416,
				0.12850476801395416,
				0.12850476801395416
			],
			"translation":[
				0.7062298655509949,
				0.056395307183265686,
				0.02247333526611328
			]
		},
		{
			"children":[
				12,
				13
			],
			"mesh":4,
			"name":"Spoon",
			"translation":[
				0,
				0,
				4
			]
		},
		{
			"name":"Bottom.005",
			"rotation":[
				-0.5000000596046448,
				0.4999999403953552,
				-0.4999999403953552,
				0.5000000596046448
			],
			"scale":[
				0.07293371111154556,
				0.07293371111154556,
				0.07293371111154556
			],
			"translation":[
				-0.28290408849716187,
				0.04314808547496796,
				0.0015082359313964844
			]
		},
		{
			"name":"Top",
			"rotation":[
				-0.5000000596046448,
				0.4999999403953552,
				-0.4999999403953552,
				0.5000000596046448
			],
			"scale":[
				0.12850476801395416,
				0.12850476801395416,
				0.12850476801395416
			],
			"translation":[
				0.7062298655509949,
				0.056395307183265686,
				0.004180431365966797
			]
		},
		{
			"children":[
				15,
				16
			],
			"mesh":5,
			"name":"Knife",
			"translation":[
				0,
				0,
				5
			]
		}
	],
	"materials":[
		{
			"doubleSided":true,
			"name":"Material",
			"pbrMetallicRoughness":{
				"baseColorFactor":[
					0.800000011920929,
					0.800000011920929,
					0.800000011920929,
					1
				],
				"metallicFactor":0,
				"roughnessFactor":0.5
			}
		}
	],
	"meshes":[
		{
			"name":"Mesh",
			"primitives":[
				{
					"attributes":{
						"POSITION":0,
						"TEXCOORD_0":1,
						"NORMAL":2
					},
					"indices":3,
					"material":0
				}
			]
		},
		{
			"name":"Mesh",
			"primitives":[
				{
					"attributes":{
						"POSITION":4,
						"TEXCOORD_0":5,
						"NORMAL":6
					},
					"indices":7,
					"material":0
				}
			]
		},
		{
			"name":"Mesh",
			"primitives":[
				{
					"attributes":{
						"POSITION":8,
						"TEXCOORD_0":9,
						"NORMAL":10
					},
					"indices":11,
					"material":0
				}
			]
		},
		{
			"name":"Mesh",
			"primitives":[
				{
					"attributes":{
						"POSITION":12,
						"TEXCOORD_0":13,
						"NORMAL":14
					},
					"indices":15,
					"material":0
				}
			]
		},
		{
			"name":"Mesh",
			"primitives":[
				{
					"attributes":{
						"POSITION":16,
						"TEXCOORD_0":17,
						"NORMAL":18
					},
					"indices":19,
					"material":0
				}
			]
		},
		{
			"name":"Mesh",
			"primitives":[
				{
					"attributes":{
						"POSITION":20,
						"TEXCOORD_0":21,
						"NORMAL":22
					},
					"indices":23,
					"material":0
				}
			]
		}
	],
	"accessors":[
		{
			"bufferView":0,
			"componentType":5126,
			"count":288,
			"max":[
				0.8364349603652954,
				0.6926066875457764,
				0.8364349603652954
			],
			"min":[
				-0.8364349603652954,
				-0.0020333656575530767,
				-0.8364349603652954
			],
			"type":"VEC3"
		},
		{
			"bufferView":1,
			"componentType":5126,
			"count":288,
			"type":"VEC2"
		},
		{
			"bufferView":2,
			"componentType":5126,
			"count":288,
			"type":"VEC3"
		},
		{
			"bufferView":3,
			"componentType":5123,
			"count":432,
			"type":"SCALAR"
		},
		{
			"bufferView":4,
			"componentType":5126,
			"count":416,
			"max":[
				1.4637174606323242,
				0.4341472387313843,
				1.4637174606323242
			],
			"min":[
				-1.4637174606323242,
				-0.01014839205890894,
				-1.4637174606323242
			],
			"type":"VEC3"
		},
		{
			"bufferView":5,
			"componentType":5126,
			"count":416,
			"type":"VEC2"
		},
		{
			"bufferView":6,
			"componentType":5126,
			"count":416,
			"type":"VEC3"
		},
		{
			"bufferView":7,
			"componentType":5123,
			"count":624,
			"type":"SCALAR"
		},
		{
			"bufferView":8,
			"componentType":5126,
			"count":288,
			"max":[
				0.379682719707489,
				0.7452014684677124,
				0.3796827495098114
			],
			"min":[
				-0.3796827793121338,
				-0.02204645797610283,
				-0.3796827495098114
			],
			"type":"VEC3"
		},
		{
			"bufferView":9,
			"componentType":5126,
			"count":288,
			"type":"VEC2"
		},
		{
			"bufferView":10,
			"componentType":5126,
			"count":288,
			"type":"VEC3"
		},
		{
			"bufferView":11,
			"componentType":5123,
			"count":432,
			"type":"SCALAR"
		},
		{
			"bufferView":12,
			"componentType":5126,
			"count":872,
			"max":[
				0.8885982632637024,
				0.11356242001056671,
				0.14217223227024078
			],
			"min":[
				-0.40203702449798584,
				-0.005959595087915659,
				-0.12299279123544693
			],
			"type":"VEC3"
		},
		{
			"bufferView":13,
			"componentType":5126,
			"count":872,
			"type":"VEC2"
		},
		{
			"bufferView":14,
			"componentType":5126,
			"count":872,
			"type":"VEC3"
		},
		{
			"bufferView":15,
			"componentType":5123,
			"count":1308,
			"type":"SCALAR"
		},
		{
			"bufferView":16,
			"componentType":5126,
			"count":376,
			"max":[
				0.8993488550186157,
				0.08525127172470093,
				0.16092218458652496
			],
			"min":[
				-0.41502848267555237,
				-0.09263601899147034,
				-0.14298221468925476
			],
			"type":"VEC3"
		},
		{
			"bufferView":17,
			"componentType":5126,
			"count":376,
			"type":"VEC2"
		},
		{
			"bufferView":18,
			"componentType":5126,
			"count":376,
			"type":"VEC3"
		},
		{
			"bufferView":19,
			"componentType":5123,
			"count":564,
			"type":"SCALAR"
		},
		{
			"bufferView":20,
			"componentType":5126,
			"count":408,
			"max":[
				1.3257004022598267,
				0.08026055246591568,
				0.16912688314914703
			],
			"min":[
				-0.40490788221359253,
				-0.022604452446103096,
				-0.08622420579195023
			],
			"type":"VEC3"
		},
		{
			"bufferView":21,
			"componentType":5126,
			"count":408,
			"type":"VEC2"
		},
		{
			"bufferView":22,
			"componentType":5126,
			"count":408,
			"type":"VEC3"
		},
		{
			"bufferView":23,
			"componentType":5123,
			"count":612,
			"type":"SCALAR"
		}
	],
	"bufferViews":[
		{
			"buffer":0,
			"byteLength":3456,
			"byteOffset":0,
			"target":34962
		},
		{
			"buffer":0,
			"byteLength":2304,
			"byteOffset":3456,
			"target":34962
		},
		{
			"buffer":0,
			"byteLength":3456,
			"byteOffset":5760,
			"target":34962
		},
		{
			"buffer":0,
			"byteLength":864,
			"byteOffset":9216,
			"target":34963
		},
		{
			"buffer":0,
			"byteLength":4992,
			"byteOffset":10080,
			"target":34962
		},
		{
			"buffer":0,
			"byteLength":3328,
			"byteOffset":15072,
			"target":34962
		},
		{
			"buffer":0,
			"byteLength":4992,
			"byteOffset":18400,
			"target":34962
		},
		{
			"buffer":0,
			"byteLength":1248,
			"byteOffset":23392,
			"target":34963
		},
		{
			"buffer":0,
			"byteLength":3456,
			"byteOffset":24640,
			"target":34962
		},
		{
			"buffer":0,
			"byteLength":2304,
			"byteOffset":28096,
			"target":34962
		},
		{
			"buffer":0,
			"byteLength":3456,
			"byteOffset":30400,
			"target":34962
		},
		{
			"buffer":0,
			"byteLength":864,
			"byteOffset":33856,
			"target":34963
		},
		{
			"buffer":0,
			"byteLength":10464,
			"byteOffset":34720,
			"target":34962
		},
		{
			"buffer":0,
			"byteLength":6976,
			"byteOffset":45184,
			"target":34962
		},
		{
			"buffer":0,
			"byteLength":10464,
			"byteOffset":52160,
			"target":34962
		},
		{
			"buffer":0,
			"byteLength":2616,
			"byteOffset":62624,
			"target":34963
		},
		{
			"buffer":0,
			"byteLength":4512,
			"byteOffset":65240,
			"target":34962
		},
		{
			"buffer":0,
			"byteLength":3008,
			"byteOffset":69752,
			"target":34962
		},
		{
			"buffer":0,
			"byteLength":4512,
			"byteOffset":72760,
			"target":34962
		},
		{
			"buffer":0,
			"byteLength":1128,
			"byteOffset":77272,
			"target":34963
		},
		{
			"buffer":0,
			"byteLength":4896,
			"byteOffset":78400,
			"target":34962
		},
		{
			"buffer":0,
			"byteLength":3264,
			"byteOffset":83296,
			"target":34962
		},
		{
			"buffer":0,
			"byteLength":4896,
			"byteOffset":86560,
			"target":34962
		},
		{
			"buffer":0,
			"byteLength":1224,
			"byteOffset":91456,
			"target":34963
		}
	],
	"buffers":[
		{
			"byteLength":92680,
			"uri":"Dishes.bin"
		}
	]
}
